<mxfile host="app.diagrams.net" modified="2022-01-28T11:15:07.261Z" agent="5.0 (Windows NT 10.0; Win64; x64) AppleWebKit/537.36 (KHTML, like Gecko) Chrome/97.0.4692.99 Safari/537.36 Edg/97.0.1072.69" etag="Yhr-9GVSl5G7fXxpEvmJ" version="16.4.11" type="github">
  <diagram name="Page-1" id="2cc2dc42-3aac-f2a9-1cec-7a8b7cbee084">
    <mxGraphModel dx="770" dy="532" grid="1" gridSize="10" guides="1" tooltips="1" connect="1" arrows="1" fold="1" page="1" pageScale="1" pageWidth="1100" pageHeight="850" background="none" math="0" shadow="0">
      <root>
        <mxCell id="0" />
        <mxCell id="1" parent="0" />
        <mxCell id="7026571954dc6520-1" value="" style="strokeWidth=1;shadow=0;dashed=0;align=center;html=1;shape=mxgraph.mockup.containers.browserWindow;rSize=0;strokeColor=#666666;mainText=,;recursiveResize=0;rounded=0;labelBackgroundColor=none;fontFamily=Verdana;fontSize=12" parent="1" vertex="1">
          <mxGeometry x="30" y="20" width="1050" height="820" as="geometry" />
        </mxCell>
        <mxCell id="7026571954dc6520-2" value="Page 1" style="strokeWidth=1;shadow=0;dashed=0;align=center;html=1;shape=mxgraph.mockup.containers.anchor;fontSize=17;fontColor=#666666;align=left;" parent="7026571954dc6520-1" vertex="1">
          <mxGeometry x="60" y="12" width="110" height="26" as="geometry" />
        </mxCell>
        <mxCell id="7026571954dc6520-3" value="https://www.default.com" style="strokeWidth=1;shadow=0;dashed=0;align=center;html=1;shape=mxgraph.mockup.containers.anchor;rSize=0;fontSize=17;fontColor=#666666;align=left;" parent="7026571954dc6520-1" vertex="1">
          <mxGeometry x="130" y="60" width="250" height="26" as="geometry" />
        </mxCell>
        <mxCell id="7026571954dc6520-4" value="Ver todos los pacientes" style="text;html=1;points=[];align=left;verticalAlign=top;spacingTop=-4;fontSize=30;fontFamily=Verdana" parent="7026571954dc6520-1" vertex="1">
          <mxGeometry x="30" y="140" width="340" height="50" as="geometry" />
        </mxCell>
        <mxCell id="7026571954dc6520-14" value="Search" style="strokeWidth=1;shadow=0;dashed=0;align=center;html=1;shape=mxgraph.mockup.forms.searchBox;strokeColor=#999999;mainText=;strokeColor2=#008cff;fontColor=#666666;fontSize=17;align=left;spacingLeft=3;rounded=0;labelBackgroundColor=none;" parent="7026571954dc6520-1" vertex="1">
          <mxGeometry x="30" y="250" width="220" height="30" as="geometry" />
        </mxCell>
        <mxCell id="_XVdHEFcjXlAQeL5aByz-1" value="Campo de busqueda 1" style="text;html=1;strokeColor=none;fillColor=none;align=center;verticalAlign=middle;whiteSpace=wrap;rounded=0;" parent="7026571954dc6520-1" vertex="1">
          <mxGeometry x="30" y="210" width="130" height="30" as="geometry" />
        </mxCell>
        <mxCell id="_XVdHEFcjXlAQeL5aByz-2" value="Search" style="strokeWidth=1;shadow=0;dashed=0;align=center;html=1;shape=mxgraph.mockup.forms.searchBox;strokeColor=#999999;mainText=;strokeColor2=#008cff;fontColor=#666666;fontSize=17;align=left;spacingLeft=3;rounded=0;labelBackgroundColor=none;" parent="7026571954dc6520-1" vertex="1">
          <mxGeometry x="300" y="250" width="220" height="30" as="geometry" />
        </mxCell>
        <mxCell id="_XVdHEFcjXlAQeL5aByz-4" value="Campo de busqueda 3" style="text;html=1;strokeColor=none;fillColor=none;align=center;verticalAlign=middle;whiteSpace=wrap;rounded=0;" parent="7026571954dc6520-1" vertex="1">
          <mxGeometry x="550" y="210" width="130" height="30" as="geometry" />
        </mxCell>
        <mxCell id="_XVdHEFcjXlAQeL5aByz-5" value="Search" style="strokeWidth=1;shadow=0;dashed=0;align=center;html=1;shape=mxgraph.mockup.forms.searchBox;strokeColor=#999999;mainText=;strokeColor2=#008cff;fontColor=#666666;fontSize=17;align=left;spacingLeft=3;rounded=0;labelBackgroundColor=none;" parent="7026571954dc6520-1" vertex="1">
          <mxGeometry x="550" y="250" width="220" height="30" as="geometry" />
        </mxCell>
        <mxCell id="_XVdHEFcjXlAQeL5aByz-6" value="" style="shape=table;html=1;whiteSpace=wrap;startSize=0;container=1;collapsible=0;childLayout=tableLayout;" parent="7026571954dc6520-1" vertex="1">
          <mxGeometry x="50" y="350" width="720" height="240" as="geometry" />
        </mxCell>
        <mxCell id="_XVdHEFcjXlAQeL5aByz-7" value="" style="shape=tableRow;horizontal=0;startSize=0;swimlaneHead=0;swimlaneBody=0;top=0;left=0;bottom=0;right=0;collapsible=0;dropTarget=0;fillColor=none;points=[[0,0.5],[1,0.5]];portConstraint=eastwest;" parent="_XVdHEFcjXlAQeL5aByz-6" vertex="1">
          <mxGeometry width="720" height="40" as="geometry" />
        </mxCell>
        <mxCell id="_XVdHEFcjXlAQeL5aByz-8" value="ID encontrado 1" style="shape=partialRectangle;html=1;whiteSpace=wrap;connectable=0;fillColor=none;top=0;left=0;bottom=0;right=0;overflow=hidden;" parent="_XVdHEFcjXlAQeL5aByz-7" vertex="1">
          <mxGeometry width="240" height="40" as="geometry">
            <mxRectangle width="240" height="40" as="alternateBounds" />
          </mxGeometry>
        </mxCell>
        <mxCell id="_XVdHEFcjXlAQeL5aByz-9" value="Nombre1" style="shape=partialRectangle;html=1;whiteSpace=wrap;connectable=0;fillColor=none;top=0;left=0;bottom=0;right=0;overflow=hidden;" parent="_XVdHEFcjXlAQeL5aByz-7" vertex="1">
          <mxGeometry x="240" width="380" height="40" as="geometry">
            <mxRectangle width="380" height="40" as="alternateBounds" />
          </mxGeometry>
        </mxCell>
        <mxCell id="_XVdHEFcjXlAQeL5aByz-10" value="" style="shape=partialRectangle;html=1;whiteSpace=wrap;connectable=0;fillColor=none;top=0;left=0;bottom=0;right=0;overflow=hidden;" parent="_XVdHEFcjXlAQeL5aByz-7" vertex="1">
          <mxGeometry x="620" width="100" height="40" as="geometry">
            <mxRectangle width="100" height="40" as="alternateBounds" />
          </mxGeometry>
        </mxCell>
        <mxCell id="_XVdHEFcjXlAQeL5aByz-11" value="" style="shape=tableRow;horizontal=0;startSize=0;swimlaneHead=0;swimlaneBody=0;top=0;left=0;bottom=0;right=0;collapsible=0;dropTarget=0;fillColor=none;points=[[0,0.5],[1,0.5]];portConstraint=eastwest;" parent="_XVdHEFcjXlAQeL5aByz-6" vertex="1">
          <mxGeometry y="40" width="720" height="40" as="geometry" />
        </mxCell>
        <mxCell id="_XVdHEFcjXlAQeL5aByz-12" value="ID encontrado 2" style="shape=partialRectangle;html=1;whiteSpace=wrap;connectable=0;fillColor=none;top=0;left=0;bottom=0;right=0;overflow=hidden;" parent="_XVdHEFcjXlAQeL5aByz-11" vertex="1">
          <mxGeometry width="240" height="40" as="geometry">
            <mxRectangle width="240" height="40" as="alternateBounds" />
          </mxGeometry>
        </mxCell>
        <mxCell id="_XVdHEFcjXlAQeL5aByz-13" value="Nombre2" style="shape=partialRectangle;html=1;whiteSpace=wrap;connectable=0;fillColor=none;top=0;left=0;bottom=0;right=0;overflow=hidden;" parent="_XVdHEFcjXlAQeL5aByz-11" vertex="1">
          <mxGeometry x="240" width="380" height="40" as="geometry">
            <mxRectangle width="380" height="40" as="alternateBounds" />
          </mxGeometry>
        </mxCell>
        <mxCell id="_XVdHEFcjXlAQeL5aByz-14" value="" style="shape=partialRectangle;html=1;whiteSpace=wrap;connectable=0;fillColor=none;top=0;left=0;bottom=0;right=0;overflow=hidden;" parent="_XVdHEFcjXlAQeL5aByz-11" vertex="1">
          <mxGeometry x="620" width="100" height="40" as="geometry">
            <mxRectangle width="100" height="40" as="alternateBounds" />
          </mxGeometry>
        </mxCell>
        <mxCell id="_XVdHEFcjXlAQeL5aByz-27" style="shape=tableRow;horizontal=0;startSize=0;swimlaneHead=0;swimlaneBody=0;top=0;left=0;bottom=0;right=0;collapsible=0;dropTarget=0;fillColor=none;points=[[0,0.5],[1,0.5]];portConstraint=eastwest;" parent="_XVdHEFcjXlAQeL5aByz-6" vertex="1">
          <mxGeometry y="80" width="720" height="40" as="geometry" />
        </mxCell>
        <mxCell id="_XVdHEFcjXlAQeL5aByz-28" value="&lt;span&gt;ID encontrado 3&lt;/span&gt;" style="shape=partialRectangle;html=1;whiteSpace=wrap;connectable=0;fillColor=none;top=0;left=0;bottom=0;right=0;overflow=hidden;" parent="_XVdHEFcjXlAQeL5aByz-27" vertex="1">
          <mxGeometry width="240" height="40" as="geometry">
            <mxRectangle width="240" height="40" as="alternateBounds" />
          </mxGeometry>
        </mxCell>
        <mxCell id="_XVdHEFcjXlAQeL5aByz-29" value="Nombre3" style="shape=partialRectangle;html=1;whiteSpace=wrap;connectable=0;fillColor=none;top=0;left=0;bottom=0;right=0;overflow=hidden;" parent="_XVdHEFcjXlAQeL5aByz-27" vertex="1">
          <mxGeometry x="240" width="380" height="40" as="geometry">
            <mxRectangle width="380" height="40" as="alternateBounds" />
          </mxGeometry>
        </mxCell>
        <mxCell id="_XVdHEFcjXlAQeL5aByz-30" style="shape=partialRectangle;html=1;whiteSpace=wrap;connectable=0;fillColor=none;top=0;left=0;bottom=0;right=0;overflow=hidden;" parent="_XVdHEFcjXlAQeL5aByz-27" vertex="1">
          <mxGeometry x="620" width="100" height="40" as="geometry">
            <mxRectangle width="100" height="40" as="alternateBounds" />
          </mxGeometry>
        </mxCell>
        <mxCell id="_XVdHEFcjXlAQeL5aByz-23" style="shape=tableRow;horizontal=0;startSize=0;swimlaneHead=0;swimlaneBody=0;top=0;left=0;bottom=0;right=0;collapsible=0;dropTarget=0;fillColor=none;points=[[0,0.5],[1,0.5]];portConstraint=eastwest;" parent="_XVdHEFcjXlAQeL5aByz-6" vertex="1">
          <mxGeometry y="120" width="720" height="40" as="geometry" />
        </mxCell>
        <mxCell id="_XVdHEFcjXlAQeL5aByz-24" style="shape=partialRectangle;html=1;whiteSpace=wrap;connectable=0;fillColor=none;top=0;left=0;bottom=0;right=0;overflow=hidden;" parent="_XVdHEFcjXlAQeL5aByz-23" vertex="1">
          <mxGeometry width="240" height="40" as="geometry">
            <mxRectangle width="240" height="40" as="alternateBounds" />
          </mxGeometry>
        </mxCell>
        <mxCell id="_XVdHEFcjXlAQeL5aByz-25" style="shape=partialRectangle;html=1;whiteSpace=wrap;connectable=0;fillColor=none;top=0;left=0;bottom=0;right=0;overflow=hidden;" parent="_XVdHEFcjXlAQeL5aByz-23" vertex="1">
          <mxGeometry x="240" width="380" height="40" as="geometry">
            <mxRectangle width="380" height="40" as="alternateBounds" />
          </mxGeometry>
        </mxCell>
        <mxCell id="_XVdHEFcjXlAQeL5aByz-26" style="shape=partialRectangle;html=1;whiteSpace=wrap;connectable=0;fillColor=none;top=0;left=0;bottom=0;right=0;overflow=hidden;" parent="_XVdHEFcjXlAQeL5aByz-23" vertex="1">
          <mxGeometry x="620" width="100" height="40" as="geometry">
            <mxRectangle width="100" height="40" as="alternateBounds" />
          </mxGeometry>
        </mxCell>
        <mxCell id="_XVdHEFcjXlAQeL5aByz-19" style="shape=tableRow;horizontal=0;startSize=0;swimlaneHead=0;swimlaneBody=0;top=0;left=0;bottom=0;right=0;collapsible=0;dropTarget=0;fillColor=none;points=[[0,0.5],[1,0.5]];portConstraint=eastwest;" parent="_XVdHEFcjXlAQeL5aByz-6" vertex="1">
          <mxGeometry y="160" width="720" height="40" as="geometry" />
        </mxCell>
        <mxCell id="_XVdHEFcjXlAQeL5aByz-20" style="shape=partialRectangle;html=1;whiteSpace=wrap;connectable=0;fillColor=none;top=0;left=0;bottom=0;right=0;overflow=hidden;" parent="_XVdHEFcjXlAQeL5aByz-19" vertex="1">
          <mxGeometry width="240" height="40" as="geometry">
            <mxRectangle width="240" height="40" as="alternateBounds" />
          </mxGeometry>
        </mxCell>
        <mxCell id="_XVdHEFcjXlAQeL5aByz-21" style="shape=partialRectangle;html=1;whiteSpace=wrap;connectable=0;fillColor=none;top=0;left=0;bottom=0;right=0;overflow=hidden;" parent="_XVdHEFcjXlAQeL5aByz-19" vertex="1">
          <mxGeometry x="240" width="380" height="40" as="geometry">
            <mxRectangle width="380" height="40" as="alternateBounds" />
          </mxGeometry>
        </mxCell>
        <mxCell id="_XVdHEFcjXlAQeL5aByz-22" style="shape=partialRectangle;html=1;whiteSpace=wrap;connectable=0;fillColor=none;top=0;left=0;bottom=0;right=0;overflow=hidden;" parent="_XVdHEFcjXlAQeL5aByz-19" vertex="1">
          <mxGeometry x="620" width="100" height="40" as="geometry">
            <mxRectangle width="100" height="40" as="alternateBounds" />
          </mxGeometry>
        </mxCell>
        <mxCell id="_XVdHEFcjXlAQeL5aByz-15" value="" style="shape=tableRow;horizontal=0;startSize=0;swimlaneHead=0;swimlaneBody=0;top=0;left=0;bottom=0;right=0;collapsible=0;dropTarget=0;fillColor=none;points=[[0,0.5],[1,0.5]];portConstraint=eastwest;" parent="_XVdHEFcjXlAQeL5aByz-6" vertex="1">
          <mxGeometry y="200" width="720" height="40" as="geometry" />
        </mxCell>
        <mxCell id="_XVdHEFcjXlAQeL5aByz-16" value="" style="shape=partialRectangle;html=1;whiteSpace=wrap;connectable=0;fillColor=none;top=0;left=0;bottom=0;right=0;overflow=hidden;" parent="_XVdHEFcjXlAQeL5aByz-15" vertex="1">
          <mxGeometry width="240" height="40" as="geometry">
            <mxRectangle width="240" height="40" as="alternateBounds" />
          </mxGeometry>
        </mxCell>
        <mxCell id="_XVdHEFcjXlAQeL5aByz-17" value="" style="shape=partialRectangle;html=1;whiteSpace=wrap;connectable=0;fillColor=none;top=0;left=0;bottom=0;right=0;overflow=hidden;" parent="_XVdHEFcjXlAQeL5aByz-15" vertex="1">
          <mxGeometry x="240" width="380" height="40" as="geometry">
            <mxRectangle width="380" height="40" as="alternateBounds" />
          </mxGeometry>
        </mxCell>
        <mxCell id="_XVdHEFcjXlAQeL5aByz-18" value="" style="shape=partialRectangle;html=1;whiteSpace=wrap;connectable=0;fillColor=none;top=0;left=0;bottom=0;right=0;overflow=hidden;pointerEvents=1;" parent="_XVdHEFcjXlAQeL5aByz-15" vertex="1">
          <mxGeometry x="620" width="100" height="40" as="geometry">
            <mxRectangle width="100" height="40" as="alternateBounds" />
          </mxGeometry>
        </mxCell>
        <mxCell id="_XVdHEFcjXlAQeL5aByz-31" value="Ver detalles" style="labelPosition=center;verticalLabelPosition=middle;align=center;html=1;shape=mxgraph.basic.shaded_button;dx=10;fillColor=#E6E6E6;strokeColor=none;" parent="7026571954dc6520-1" vertex="1">
          <mxGeometry x="670" y="350" width="100" height="40" as="geometry" />
        </mxCell>
        <mxCell id="_XVdHEFcjXlAQeL5aByz-33" value="Ver detalles" style="labelPosition=center;verticalLabelPosition=middle;align=center;html=1;shape=mxgraph.basic.shaded_button;dx=10;fillColor=#E6E6E6;strokeColor=none;" parent="7026571954dc6520-1" vertex="1">
          <mxGeometry x="670" y="430" width="100" height="40" as="geometry" />
        </mxCell>
        <mxCell id="_XVdHEFcjXlAQeL5aByz-32" value="Ver detalles" style="labelPosition=center;verticalLabelPosition=middle;align=center;html=1;shape=mxgraph.basic.shaded_button;dx=10;fillColor=#E6E6E6;strokeColor=none;" parent="7026571954dc6520-1" vertex="1">
          <mxGeometry x="670" y="390" width="100" height="40" as="geometry" />
        </mxCell>
        <mxCell id="_XVdHEFcjXlAQeL5aByz-34" value="Campo de busqueda 2" style="text;html=1;strokeColor=none;fillColor=none;align=center;verticalAlign=middle;whiteSpace=wrap;rounded=0;" parent="7026571954dc6520-1" vertex="1">
          <mxGeometry x="300" y="210" width="130" height="30" as="geometry" />
        </mxCell>
      </root>
    </mxGraphModel>
  </diagram>
</mxfile>
